<svg xmlns="http://www.w3.org/2000/svg" viewBox="0 0 64 64" role="img" aria-label="BrandKit Studio logo">
  <defs>
    <linearGradient id="bg" x1="10" y1="8" x2="54" y2="56" gradientUnits="userSpaceOnUse">
      <stop stop-color="#8B6AF0"/>
      <stop offset="0.55" stop-color="#D985B6"/>
      <stop offset="1" stop-color="#9FE7D0"/>
    </linearGradient>
    <linearGradient id="spark" x1="18" y1="15" x2="48" y2="49" gradientUnits="userSpaceOnUse">
      <stop stop-color="#FFFFFF"/>
      <stop offset="1" stop-color="#FFF4C7"/>
    </linearGradient>
  </defs>
  <rect width="64" height="64" rx="18" fill="#F8F4FF"/>
  <rect x="6" y="6" width="52" height="52" rx="16" fill="url(#bg)"/>
  <path d="M33 13l3.9 10.5L48 27.5l-10.5 3.9L33 43l-4.5-11.6L18 27.5l10.9-4L33 13z" fill="url(#spark)"/>
  <path d="M18 42l1.8 4.8L25 48.5l-4.8 1.8L18 56l-2.2-5.7L11 48.5l5.2-1.7L18 42z" fill="#FFFFFF" opacity="0.95"/>
  <path d="M48 9l1.4 3.6L53 14l-3.6 1.4L48 19l-1.4-3.6L43 14l3.6-1.4L48 9z" fill="#FFFFFF" opacity="0.85"/>
</svg>
